<svg width="280" height="206" viewBox="0 0 280 206" fill="none" xmlns="http://www.w3.org/2000/svg">
<g clip-path="url(#clip0_2709_30632)">
<path d="M264.207 205.999L264.525 205.408C260.265 203.091 254.963 200.207 252.194 195.474C249.464 190.808 249.402 184.472 252.034 178.939C254.273 174.23 258.386 170.011 263.929 166.738C265.023 166.092 266.17 165.48 267.28 164.889C269.963 163.458 272.738 161.979 275.025 159.881C278.176 156.991 280.559 152.142 278.783 147.822C278.198 146.443 277.241 145.257 276.02 144.398C274.8 143.538 273.364 143.041 271.875 142.961L271.838 143.632C273.201 143.705 274.517 144.16 275.635 144.947C276.754 145.734 277.631 146.82 278.167 148.083C279.818 152.098 277.553 156.653 274.575 159.385C272.35 161.426 269.614 162.884 266.968 164.295C265.851 164.89 264.697 165.505 263.591 166.158C257.933 169.499 253.728 173.818 251.431 178.649C248.705 184.381 248.777 190.959 251.618 195.815C254.481 200.709 259.874 203.642 264.207 205.999Z" fill="#E5E7EB"/>
<path d="M267.641 146.503C270.87 146.503 273.487 145.224 273.487 143.647C273.487 142.07 270.87 140.791 267.641 140.791C264.413 140.791 261.795 142.07 261.795 143.647C261.795 145.224 264.413 146.503 267.641 146.503Z" fill="#E5E7EB"/>
<path d="M262.965 165.319C266.194 165.319 268.811 164.041 268.811 162.463C268.811 160.886 266.194 159.607 262.965 159.607C259.736 159.607 257.119 160.886 257.119 162.463C257.119 164.041 259.736 165.319 262.965 165.319Z" fill="#E5E7EB"/>
<path d="M273.654 168.343C276.883 168.343 279.5 167.064 279.5 165.487C279.5 163.91 276.883 162.631 273.654 162.631C270.426 162.631 267.809 163.91 267.809 165.487C267.809 167.064 270.426 168.343 273.654 168.343Z" fill="#E5E7EB"/>
<path d="M256.952 184.136C260.18 184.136 262.798 182.857 262.798 181.28C262.798 179.702 260.18 178.424 256.952 178.424C253.723 178.424 251.106 179.702 251.106 181.28C251.106 182.857 253.723 184.136 256.952 184.136Z" fill="#E5E7EB"/>
<path d="M245.26 184.136C248.489 184.136 251.106 182.857 251.106 181.28C251.106 179.702 248.489 178.424 245.26 178.424C242.032 178.424 239.415 179.702 239.415 181.28C239.415 182.857 242.032 184.136 245.26 184.136Z" fill="#E5E7EB"/>
<path d="M46.3597 147.666H25.6172C25.0555 147.666 24.517 147.441 24.1198 147.042C23.7226 146.642 23.4992 146.101 23.4985 145.536V76.791C23.4992 76.226 23.7226 75.6844 24.1198 75.2849C24.517 74.8855 25.0555 74.6608 25.6172 74.6602H46.3597C46.9214 74.6608 47.4599 74.8855 47.8571 75.2849C48.2543 75.6844 48.4777 76.226 48.4784 76.791V145.536C48.4777 146.101 48.2543 146.642 47.8571 147.042C47.4599 147.441 46.9214 147.666 46.3597 147.666Z" fill="#1A56DB"/>
<path d="M84.1864 147.667H63.4438C62.8822 147.666 62.3437 147.441 61.9465 147.042C61.5493 146.642 61.3259 146.101 61.3252 145.536V49.5117C61.3259 48.9468 61.5493 48.4051 61.9465 48.0057C62.3437 47.6062 62.8822 47.3815 63.4438 47.3809H84.1864C84.7481 47.3815 85.2866 47.6062 85.6837 48.0057C86.0809 48.4051 86.3044 48.9468 86.305 49.5117V145.536C86.3044 146.101 86.0809 146.642 85.6837 147.042C85.2866 147.441 84.7481 147.666 84.1864 147.667Z" fill="#1A56DB"/>
<path d="M122.013 147.666H101.271C100.709 147.666 100.17 147.441 99.7731 147.042C99.376 146.642 99.1525 146.101 99.1519 145.536V76.791C99.1525 76.226 99.376 75.6844 99.7731 75.2849C100.17 74.8855 100.709 74.6608 101.271 74.6602H122.013C122.575 74.6608 123.113 74.8855 123.51 75.2849C123.908 75.6844 124.131 76.226 124.132 76.791V145.536C124.131 146.101 123.908 146.642 123.51 147.042C123.113 147.441 122.575 147.666 122.013 147.666Z" fill="#1A56DB"/>
<path d="M159.84 147.666H139.097C138.548 147.678 138.017 147.47 137.62 147.089C137.223 146.708 136.992 146.183 136.979 145.631V38.6461C136.992 38.0941 137.223 37.57 137.62 37.1887C138.017 36.8074 138.548 36.5999 139.097 36.6118H159.84C160.389 36.5999 160.92 36.8074 161.317 37.1887C161.714 37.57 161.945 38.0941 161.958 38.6461V145.631C161.945 146.183 161.714 146.708 161.317 147.089C160.92 147.47 160.389 147.678 159.84 147.666Z" fill="#1A56DB"/>
<path d="M197.666 147.665H176.924C176.362 147.665 175.824 147.44 175.426 147.04C175.029 146.641 174.806 146.099 174.805 145.534V19.3594C174.806 18.7944 175.029 18.2528 175.426 17.8533C175.824 17.4538 176.362 17.2291 176.924 17.2285H197.666C198.228 17.2291 198.767 17.4538 199.164 17.8533C199.561 18.2528 199.784 18.7944 199.785 19.3594V145.534C199.784 146.099 199.561 146.641 199.164 147.04C198.767 147.44 198.228 147.665 197.666 147.665Z" fill="#1A56DB"/>
<path d="M35.9888 66.0442C38.3538 66.0442 40.2711 64.1158 40.2711 61.737C40.2711 59.3581 38.3538 57.4297 35.9888 57.4297C33.6238 57.4297 31.7065 59.3581 31.7065 61.737C31.7065 64.1158 33.6238 66.0442 35.9888 66.0442Z" fill="#3F3D56"/>
<path d="M73.8155 38.0482C76.1805 38.0482 78.0977 36.1197 78.0977 33.7409C78.0977 31.362 76.1805 29.4336 73.8155 29.4336C71.4504 29.4336 69.5332 31.362 69.5332 33.7409C69.5332 36.1197 71.4504 38.0482 73.8155 38.0482Z" fill="#3F3D56"/>
<path d="M111.642 66.0442C114.007 66.0442 115.924 64.1158 115.924 61.737C115.924 59.3581 114.007 57.4297 111.642 57.4297C109.277 57.4297 107.36 59.3581 107.36 61.737C107.36 64.1158 109.277 66.0442 111.642 66.0442Z" fill="#3F3D56"/>
<path d="M149.468 24.4075C151.833 24.4075 153.751 22.4791 153.751 20.1002C153.751 17.7214 151.833 15.793 149.468 15.793C147.103 15.793 145.186 17.7214 145.186 20.1002C145.186 22.4791 147.103 24.4075 149.468 24.4075Z" fill="#3F3D56"/>
<path d="M187.295 8.61456C189.66 8.61456 191.577 6.68613 191.577 4.30728C191.577 1.92844 189.66 0 187.295 0C184.93 0 183.013 1.92844 183.013 4.30728C183.013 6.68613 184.93 8.61456 187.295 8.61456Z" fill="#3F3D56"/>
<path d="M221.973 148.465H0.834046C0.745452 148.465 0.660486 148.43 0.59784 148.367C0.535194 148.304 0.5 148.218 0.5 148.129C0.5 148.04 0.535194 147.954 0.59784 147.891C0.660486 147.828 0.745452 147.793 0.834046 147.793H221.973C222.061 147.793 222.146 147.828 222.209 147.891C222.272 147.954 222.307 148.04 222.307 148.129C222.307 148.218 222.272 148.304 222.209 148.367C222.146 148.43 222.061 148.465 221.973 148.465Z" fill="#D1D5DB"/>
<path d="M277.09 205.922H168.859C168.771 205.922 168.686 205.887 168.623 205.824C168.561 205.761 168.525 205.675 168.525 205.586C168.525 205.497 168.561 205.411 168.623 205.348C168.686 205.285 168.771 205.25 168.859 205.25H277.09C277.179 205.25 277.264 205.285 277.327 205.348C277.389 205.411 277.425 205.497 277.425 205.586C277.425 205.675 277.389 205.761 277.327 205.824C277.264 205.887 277.179 205.922 277.09 205.922Z" fill="#E5E7EB"/>
<path d="M207.587 143.005C207.862 142.73 208.073 142.398 208.207 142.033C208.34 141.667 208.392 141.276 208.359 140.888C208.326 140.5 208.209 140.124 208.016 139.786C207.823 139.449 207.559 139.158 207.242 138.934L208.555 132.99L205.159 131.307L203.421 139.726C203.083 140.287 202.96 140.953 203.077 141.598C203.195 142.243 203.543 142.823 204.056 143.227C204.57 143.631 205.213 143.832 205.864 143.791C206.514 143.75 207.128 143.47 207.587 143.005Z" fill="#FFB7B7"/>
<path d="M244.728 143.134C244.98 142.839 245.166 142.492 245.271 142.117C245.375 141.742 245.397 141.348 245.335 140.964C245.272 140.58 245.126 140.214 244.908 139.892C244.689 139.571 244.403 139.301 244.07 139.103L244.922 133.075L241.407 131.66L240.322 140.19C240.028 140.775 239.957 141.449 240.123 142.083C240.29 142.717 240.682 143.268 241.225 143.63C241.768 143.993 242.424 144.143 243.07 144.052C243.715 143.96 244.305 143.634 244.728 143.134Z" fill="#FFB7B7"/>
<path d="M218.252 202.296L214.789 202.296L213.141 188.859L218.253 188.86L218.252 202.296Z" fill="#FFB7B7"/>
<path d="M219.136 205.675L207.968 205.674V205.532C207.968 204.373 208.426 203.261 209.241 202.441C210.057 201.621 211.162 201.16 212.315 201.16L219.136 201.16L219.136 205.675Z" fill="#2F2E41"/>
<path d="M229.835 202.296L226.371 202.296L224.724 188.859L229.835 188.86L229.835 202.296Z" fill="#FFB7B7"/>
<path d="M230.718 205.675L219.551 205.674V205.532C219.551 204.373 220.009 203.261 220.824 202.441C221.639 201.621 222.745 201.16 223.897 201.16L230.718 201.16L230.718 205.675Z" fill="#2F2E41"/>
<path d="M236.808 89.252L240.543 87.8965C240.543 87.8965 242.128 88.235 242.128 92.5588C242.128 96.8825 246.337 137.207 246.337 137.207L238.97 139.158L234.806 100.9L236.808 89.252Z" fill="#2F2E41"/>
<path d="M211.853 89.252L208.118 87.8965C208.118 87.8965 206.533 88.235 206.533 92.5588C206.533 96.8825 202.323 137.207 202.323 137.207L209.69 139.158L213.854 100.9L211.853 89.252Z" fill="#2F2E41"/>
<path d="M211.9 135.242L210.879 165.533L213.139 199.04L218.963 199.175L219.81 167.919L224.613 152.291L224.128 198.353L230.722 198.274L234.806 166.583C234.806 166.583 240.199 140.356 237.208 135.242L223.435 130.635L211.9 135.242Z" fill="#2F2E41"/>
<path d="M212.013 131.591L211.68 138.878C211.68 138.878 216.327 141.204 224.495 139.787C232.664 138.37 238.093 139.304 238.093 139.304L237.466 130.016L212.013 131.591Z" fill="#E5E5E5"/>
<path d="M207.969 88.0027L218.71 83.2686L219.351 80.7891L229.8 81.0935L230.251 83.6266L240.542 87.895L236.008 103.753L236.473 114.909L242.127 135.241C242.127 135.241 237.358 139.315 225.9 137.562L223.923 133.555L222.714 137.793C222.714 137.793 212.667 141.51 209.882 136.671L211.9 101.712L207.969 88.0027Z" fill="#2F2E41"/>
<path d="M224.48 78.4599C228.312 78.4599 231.419 75.3353 231.419 71.4809C231.419 67.6265 228.312 64.502 224.48 64.502C220.648 64.502 217.542 67.6265 217.542 71.4809C217.542 75.3353 220.648 78.4599 224.48 78.4599Z" fill="#FFB7B7"/>
<path d="M232.725 68.7766C232.601 68.2086 232.362 67.6723 232.024 67.2008C231.889 65.897 231.456 64.6421 230.76 63.534C230.487 63.0147 230.1 62.5651 229.628 62.2197C229.087 61.9065 228.47 61.7517 227.847 61.773C227.734 61.7711 227.53 61.8056 227.347 61.814C227.23 61.7775 227.112 61.7449 226.993 61.7143C226.924 61.5595 226.787 61.1083 226.749 61.1389L226.232 61.5519C226.013 61.5138 225.794 61.484 225.573 61.4604C225.493 61.2301 225.413 60.9998 225.332 60.7695C225.202 60.9755 225.088 61.1913 224.991 61.4151C224.771 61.4042 224.552 61.4004 224.332 61.4037L223.893 60.9792C223.867 61.0976 223.807 61.2058 223.721 61.2906C223.635 61.3754 223.526 61.4331 223.408 61.4567C223.206 61.4775 223.005 61.5048 222.804 61.5373C222.788 61.5372 222.771 61.5373 222.755 61.5369C221.673 61.5097 220.509 61.4609 219.605 62.0583C219.181 62.3507 218.837 62.744 218.602 63.2032C218.491 63.2789 218.38 63.3541 218.272 63.4344C217.91 63.6833 217.595 63.9969 217.344 64.3597C217.162 64.6726 217.024 65.0094 216.934 65.3604C216.589 66.417 216.429 67.5259 216.461 68.6377C216.498 69.757 216.918 70.8291 217.65 71.6731C218.114 72.1745 218.704 72.5448 219.168 73.0456C220.125 74.0768 220.304 75.5151 221.122 76.6062C221.988 77.7603 223.567 78.5197 224.955 78.7374C225.789 78.8638 226.639 78.8232 227.458 78.6179C228.276 78.4126 229.046 78.0467 229.723 77.5411C230.048 77.3134 230.324 77.0222 230.535 76.6849C231.017 75.8472 230.813 74.7944 230.991 73.8436C231.326 72.0616 233.017 70.5661 232.725 68.7766Z" fill="#2F2E41"/>
<path d="M35.7602 62.008L35.3613 61.469L73.8154 32.673L111.52 60.9607L149.74 19.2216L149.808 19.1934L186.901 3.79492L187.156 4.41618L150.131 19.7861L111.603 61.8615L73.8151 33.511L35.7602 62.008Z" fill="#3F3D56"/>
</g>
<defs>
<clipPath id="clip0_2709_30632">
<rect width="279" height="206" fill="white" transform="translate(0.5)"/>
</clipPath>
</defs>
</svg>
