<svg width="175" height="48" viewBox="0 0 175 48" fill="none" xmlns="http://www.w3.org/2000/svg">
<rect width="47.9433" height="47.9433" rx="23.9717" fill="#1C64F2"/>
<g clip-path="url(#clip0_1899_26457)">
<path d="M25.3559 6.55664H22.5391V21.5799H25.3559V6.55664Z" fill="white"/>
<path d="M25.4006 26.0957H22.5391V41.3872H25.4006V26.0957Z" fill="white"/>
<path d="M32.1975 9.91016L29.3359 11.7881V36.2455L32.1975 38.034V9.91016Z" fill="white"/>
<path d="M15.74 9.91016L18.6016 11.7881V36.2455L15.74 38.034V9.91016Z" fill="white"/>
<path d="M8.94312 13.04L11.8047 14.9179V32.9369L8.94312 34.7253V13.04Z" fill="white"/>
<path d="M38.9944 13.04L36.1328 14.9179V32.9369L38.9944 34.7253V13.04Z" fill="white"/>
</g>
<path d="M57.7294 32.4717V16.2595H61.157V22.9486H68.1153V16.2595H71.535V32.4717H68.1153V25.7747H61.157V32.4717H57.7294ZM76.3797 37.0313C75.9522 37.0313 75.5511 36.997 75.1764 36.9284C74.807 36.8651 74.5009 36.7833 74.2582 36.683L75.0181 34.1657C75.4139 34.2871 75.7702 34.3531 76.0868 34.3636C76.4087 34.3742 76.6858 34.3003 76.918 34.142C77.1555 33.9837 77.3481 33.7145 77.4959 33.3345L77.6938 32.82L73.332 20.3126H76.8784L79.3957 29.2419H79.5224L82.0634 20.3126H85.6336L80.9077 33.7858C80.6808 34.4401 80.372 35.0101 79.9815 35.4956C79.5963 35.9864 79.1081 36.3638 78.517 36.6276C77.926 36.8968 77.2135 37.0313 76.3797 37.0313ZM87.3593 37.0313V20.3126H90.6841V22.3549H90.8345C90.9822 22.0277 91.196 21.6952 91.4757 21.3575C91.7607 21.0145 92.1301 20.7295 92.5839 20.5025C93.0431 20.2703 93.613 20.1542 94.2938 20.1542C95.1804 20.1542 95.9984 20.3864 96.7478 20.8509C97.4972 21.31 98.0962 22.004 98.5448 22.9328C98.9933 23.8563 99.2176 25.0147 99.2176 26.408C99.2176 27.7642 98.9986 28.9094 98.5606 29.8435C98.1278 30.7724 97.5368 31.4769 96.7874 31.9571C96.0433 32.4321 95.2094 32.6696 94.2859 32.6696C93.6315 32.6696 93.0747 32.5614 92.6156 32.345C92.1617 32.1286 91.7897 31.8569 91.4994 31.5297C91.2092 31.1972 90.9875 30.8621 90.8345 30.5243H90.7316V37.0313H87.3593ZM90.6603 26.3921C90.6603 27.1151 90.7606 27.7458 90.9611 28.2841C91.1617 28.8224 91.4519 29.2419 91.8319 29.5427C92.2119 29.8383 92.6737 29.986 93.2172 29.986C93.7661 29.986 94.2305 29.8356 94.6105 29.5348C94.9904 29.2287 95.278 28.8065 95.4733 28.2682C95.6739 27.7247 95.7741 27.0993 95.7741 26.3921C95.7741 25.6902 95.6765 25.0728 95.4812 24.5398C95.286 24.0067 94.9983 23.5898 94.6184 23.289C94.2384 22.9882 93.7714 22.8378 93.2172 22.8378C92.6684 22.8378 92.204 22.9829 91.824 23.2732C91.4493 23.5634 91.1617 23.9751 90.9611 24.5081C90.7606 25.0411 90.6603 25.6691 90.6603 26.3921ZM107.007 32.7092C105.756 32.7092 104.68 32.4558 103.777 31.9492C102.88 31.4373 102.189 30.7143 101.703 29.7802C101.218 28.8408 100.975 27.7299 100.975 26.4475C100.975 25.1968 101.218 24.0991 101.703 23.1544C102.189 22.2098 102.872 21.4736 103.754 20.9458C104.64 20.4181 105.68 20.1542 106.872 20.1542C107.675 20.1542 108.421 20.2835 109.113 20.5421C109.809 20.7954 110.416 21.1781 110.933 21.69C111.456 22.2019 111.862 22.8457 112.153 23.6215C112.443 24.392 112.588 25.2944 112.588 26.3288V27.255H102.321V25.1651H109.414C109.414 24.6796 109.308 24.2495 109.097 23.8748C108.886 23.5001 108.593 23.2072 108.218 22.9961C107.849 22.7797 107.419 22.6716 106.928 22.6716C106.416 22.6716 105.962 22.7903 105.566 23.0278C105.176 23.26 104.87 23.574 104.648 23.9698C104.426 24.3603 104.313 24.7957 104.308 25.276V27.2629C104.308 27.8645 104.418 28.3843 104.64 28.8224C104.867 29.2604 105.186 29.5981 105.598 29.8356C106.01 30.0731 106.498 30.1918 107.062 30.1918C107.437 30.1918 107.78 30.1391 108.092 30.0335C108.403 29.928 108.669 29.7697 108.891 29.5586C109.113 29.3475 109.282 29.0889 109.398 28.7828L112.517 28.9886C112.358 29.738 112.034 30.3924 111.543 30.9518C111.057 31.5059 110.429 31.9387 109.659 32.25C108.894 32.5561 108.01 32.7092 107.007 32.7092ZM114.789 32.4717V20.3126H118.058V22.4341H118.185C118.406 21.6794 118.778 21.1094 119.301 20.7242C119.823 20.3337 120.425 20.1384 121.106 20.1384C121.274 20.1384 121.457 20.149 121.652 20.1701C121.847 20.1912 122.019 20.2202 122.166 20.2571V23.2494C122.008 23.2019 121.789 23.1597 121.509 23.1228C121.23 23.0858 120.974 23.0674 120.741 23.0674C120.245 23.0674 119.802 23.1755 119.412 23.3919C119.026 23.603 118.72 23.8986 118.493 24.2785C118.272 24.6585 118.161 25.0965 118.161 25.5926V32.4717H114.789ZM123.973 32.4717V16.2595H127.345V22.3549H127.448C127.596 22.0277 127.81 21.6952 128.09 21.3575C128.375 21.0145 128.744 20.7295 129.198 20.5025C129.657 20.2703 130.227 20.1542 130.908 20.1542C131.794 20.1542 132.612 20.3864 133.362 20.8509C134.111 21.31 134.71 22.004 135.159 22.9328C135.607 23.8563 135.832 25.0147 135.832 26.408C135.832 27.7642 135.613 28.9094 135.175 29.8435C134.742 30.7724 134.151 31.4769 133.401 31.9571C132.657 32.4321 131.823 32.6696 130.9 32.6696C130.245 32.6696 129.689 32.5614 129.23 32.345C128.776 32.1286 128.404 31.8569 128.113 31.5297C127.823 31.1972 127.601 30.8621 127.448 30.5243H127.298V32.4717H123.973ZM127.274 26.3921C127.274 27.1151 127.375 27.7458 127.575 28.2841C127.776 28.8224 128.066 29.2419 128.446 29.5427C128.826 29.8383 129.288 29.986 129.831 29.986C130.38 29.986 130.844 29.8356 131.224 29.5348C131.604 29.2287 131.892 28.8065 132.087 28.2682C132.288 27.7247 132.388 27.0993 132.388 26.3921C132.388 25.6902 132.29 25.0728 132.095 24.5398C131.9 24.0067 131.612 23.5898 131.232 23.289C130.852 22.9882 130.385 22.8378 129.831 22.8378C129.282 22.8378 128.818 22.9829 128.438 23.2732C128.063 23.5634 127.776 23.9751 127.575 24.5081C127.375 25.0411 127.274 25.6691 127.274 26.3921ZM143.575 32.7092C142.346 32.7092 141.282 32.4479 140.385 31.9255C139.493 31.3977 138.805 30.6642 138.319 29.7248C137.834 28.7801 137.591 27.6851 137.591 26.4396C137.591 25.1836 137.834 24.0859 138.319 23.1465C138.805 22.2019 139.493 21.4683 140.385 20.9458C141.282 20.4181 142.346 20.1542 143.575 20.1542C144.805 20.1542 145.866 20.4181 146.758 20.9458C147.655 21.4683 148.346 22.2019 148.832 23.1465C149.317 24.0859 149.56 25.1836 149.56 26.4396C149.56 27.6851 149.317 28.7801 148.832 29.7248C148.346 30.6642 147.655 31.3977 146.758 31.9255C145.866 32.4479 144.805 32.7092 143.575 32.7092ZM143.591 30.0969C144.151 30.0969 144.618 29.9385 144.992 29.6219C145.367 29.3 145.649 28.8619 145.839 28.3078C146.035 27.7537 146.132 27.123 146.132 26.4159C146.132 25.7087 146.035 25.078 145.839 24.5239C145.649 23.9698 145.367 23.5318 144.992 23.2098C144.618 22.8879 144.151 22.727 143.591 22.727C143.027 22.727 142.552 22.8879 142.166 23.2098C141.786 23.5318 141.499 23.9698 141.304 24.5239C141.114 25.078 141.019 25.7087 141.019 26.4159C141.019 27.123 141.114 27.7537 141.304 28.3078C141.499 28.8619 141.786 29.3 142.166 29.6219C142.552 29.9385 143.027 30.0969 143.591 30.0969ZM155.125 16.2595V32.4717H151.753V16.2595H155.125ZM161.294 32.7012C160.518 32.7012 159.827 32.5667 159.22 32.2975C158.613 32.0231 158.132 31.6194 157.779 31.0864C157.431 30.5481 157.256 29.8778 157.256 29.0757C157.256 28.4002 157.38 27.8328 157.629 27.3737C157.877 26.9146 158.214 26.5452 158.642 26.2655C159.069 25.9858 159.555 25.7747 160.098 25.6322C160.647 25.4897 161.222 25.3894 161.824 25.3314C162.531 25.2575 163.101 25.1889 163.534 25.1255C163.967 25.0569 164.281 24.9567 164.476 24.8247C164.671 24.6928 164.769 24.4975 164.769 24.2389V24.1914C164.769 23.6901 164.61 23.3022 164.294 23.0278C163.982 22.7534 163.539 22.6161 162.964 22.6161C162.357 22.6161 161.874 22.7507 161.515 23.0199C161.156 23.2837 160.919 23.6162 160.803 24.0173L157.684 23.764C157.842 23.0251 158.154 22.3866 158.618 21.8483C159.082 21.3047 159.681 20.8878 160.415 20.5975C161.154 20.302 162.009 20.1542 162.98 20.1542C163.655 20.1542 164.302 20.2334 164.919 20.3917C165.542 20.55 166.093 20.7954 166.574 21.1279C167.059 21.4604 167.442 21.8879 167.722 22.4103C168.001 22.9275 168.141 23.5476 168.141 24.2706V32.4717H164.943V30.7856H164.848C164.653 31.1655 164.391 31.5006 164.064 31.7909C163.737 32.0759 163.344 32.3002 162.885 32.4638C162.426 32.6221 161.895 32.7012 161.294 32.7012ZM162.259 30.3739C162.755 30.3739 163.194 30.2763 163.573 30.081C163.953 29.8805 164.252 29.6113 164.468 29.2736C164.684 28.9358 164.793 28.5532 164.793 28.1257V26.8354C164.687 26.904 164.542 26.9674 164.357 27.0254C164.178 27.0782 163.975 27.1283 163.748 27.1758C163.521 27.218 163.294 27.2576 163.067 27.2946C162.84 27.3262 162.634 27.3552 162.449 27.3816C162.054 27.4397 161.708 27.532 161.412 27.6587C161.117 27.7854 160.887 27.9569 160.724 28.1732C160.56 28.3843 160.478 28.6482 160.478 28.9649C160.478 29.424 160.645 29.7749 160.977 30.0177C161.315 30.2552 161.742 30.3739 162.259 30.3739Z" fill="#1C64F2"/>
<defs>
<clipPath id="clip0_1899_26457">
<rect width="30.0464" height="34.8306" fill="white" transform="translate(8.94531 6.55664)"/>
</clipPath>
</defs>
</svg>
